<svg width="1200" height="900" viewBox="0 0 1200 900" fill="none" xmlns="http://www.w3.org/2000/svg">
  <rect width="1200" height="900" rx="40" fill="#F7F4EE"/>
  <rect x="42" y="42" width="1116" height="816" rx="32" fill="#FCFBF8" stroke="#E7E5E4" stroke-width="2"/>
  <rect x="72" y="72" width="236" height="756" rx="26" fill="#111827"/>
  <rect x="338" y="72" width="790" height="136" rx="26" fill="url(#paint0_linear)"/>
  <rect x="370" y="110" width="250" height="18" rx="9" fill="#FFFFFF" fill-opacity="0.88"/>
  <rect x="370" y="140" width="392" height="12" rx="6" fill="#FFFFFF" fill-opacity="0.52"/>
  <rect x="370" y="166" width="180" height="12" rx="6" fill="#FFFFFF" fill-opacity="0.38"/>
  <rect x="72" y="114" width="112" height="20" rx="10" fill="#F59E0B"/>
  <rect x="72" y="156" width="180" height="14" rx="7" fill="#FFFFFF" fill-opacity="0.88"/>
  <rect x="72" y="192" width="128" height="10" rx="5" fill="#FFFFFF" fill-opacity="0.38"/>
  <rect x="92" y="270" width="196" height="54" rx="18" fill="#1F2937"/>
  <rect x="92" y="342" width="196" height="54" rx="18" fill="#92400E"/>
  <rect x="92" y="414" width="196" height="54" rx="18" fill="#1F2937"/>
  <rect x="92" y="486" width="196" height="54" rx="18" fill="#1F2937"/>
  <rect x="338" y="238" width="240" height="158" rx="24" fill="#FFFFFF" stroke="#E7E5E4" stroke-width="2"/>
  <rect x="596" y="238" width="240" height="158" rx="24" fill="#FFFFFF" stroke="#E7E5E4" stroke-width="2"/>
  <rect x="854" y="238" width="274" height="158" rx="24" fill="#FFF7ED" stroke="#F5D38A" stroke-width="2"/>
  <rect x="362" y="266" width="110" height="12" rx="6" fill="#78716C"/>
  <rect x="362" y="294" width="128" height="38" rx="19" fill="#111827"/>
  <rect x="620" y="266" width="116" height="12" rx="6" fill="#78716C"/>
  <rect x="620" y="294" width="152" height="38" rx="19" fill="#14532D"/>
  <rect x="878" y="266" width="120" height="12" rx="6" fill="#A16207"/>
  <rect x="878" y="294" width="168" height="38" rx="19" fill="#F59E0B"/>
  <rect x="338" y="426" width="510" height="372" rx="24" fill="#FFFFFF" stroke="#E7E5E4" stroke-width="2"/>
  <rect x="872" y="426" width="256" height="372" rx="24" fill="#FFFFFF" stroke="#E7E5E4" stroke-width="2"/>
  <rect x="366" y="456" width="168" height="14" rx="7" fill="#111827"/>
  <rect x="366" y="490" width="454" height="18" rx="9" fill="#F5F5F4"/>
  <rect x="366" y="520" width="454" height="18" rx="9" fill="#F5F5F4"/>
  <rect x="366" y="550" width="454" height="18" rx="9" fill="#F5F5F4"/>
  <rect x="366" y="596" width="214" height="132" rx="20" fill="#EFF6FF"/>
  <rect x="598" y="596" width="222" height="132" rx="20" fill="#ECFDF5"/>
  <rect x="896" y="456" width="84" height="84" rx="20" fill="#FEF3C7"/>
  <rect x="994" y="456" width="100" height="16" rx="8" fill="#111827"/>
  <rect x="994" y="484" width="84" height="10" rx="5" fill="#78716C"/>
  <rect x="896" y="570" width="84" height="84" rx="20" fill="#E0E7FF"/>
  <rect x="994" y="570" width="100" height="16" rx="8" fill="#111827"/>
  <rect x="994" y="598" width="84" height="10" rx="5" fill="#78716C"/>
  <defs>
    <linearGradient id="paint0_linear" x1="338" y1="72" x2="1128" y2="208" gradientUnits="userSpaceOnUse">
      <stop stop-color="#111827"/>
      <stop offset="0.58" stop-color="#334155"/>
      <stop offset="1" stop-color="#A16207"/>
    </linearGradient>
  </defs>
</svg>
