<svg width="1200" height="900" viewBox="0 0 1200 900" fill="none" xmlns="http://www.w3.org/2000/svg">
  <rect width="1200" height="900" rx="40" fill="#F7F4EE"/>
  <rect x="42" y="42" width="1116" height="816" rx="32" fill="#FCFBF8" stroke="#E7E5E4" stroke-width="2"/>
  <rect x="72" y="72" width="236" height="756" rx="26" fill="#0F172A"/>
  <rect x="338" y="72" width="790" height="190" rx="28" fill="url(#paint0_linear)"/>
  <circle cx="390" cy="160" r="56" fill="#FDE68A"/>
  <rect x="470" y="118" width="260" height="18" rx="9" fill="#FFFFFF"/>
  <rect x="470" y="150" width="352" height="12" rx="6" fill="#FFFFFF" fill-opacity="0.56"/>
  <rect x="470" y="178" width="206" height="12" rx="6" fill="#FFFFFF" fill-opacity="0.38"/>
  <rect x="470" y="212" width="176" height="40" rx="20" fill="#111827" fill-opacity="0.9"/>
  <rect x="96" y="154" width="160" height="14" rx="7" fill="#FFFFFF" fill-opacity="0.88"/>
  <rect x="96" y="196" width="188" height="52" rx="18" fill="#1E293B"/>
  <rect x="96" y="266" width="188" height="52" rx="18" fill="#92400E"/>
  <rect x="96" y="336" width="188" height="52" rx="18" fill="#1E293B"/>
  <rect x="96" y="406" width="188" height="52" rx="18" fill="#1E293B"/>
  <rect x="338" y="294" width="250" height="146" rx="24" fill="#FFFFFF" stroke="#E7E5E4" stroke-width="2"/>
  <rect x="606" y="294" width="250" height="146" rx="24" fill="#FFFFFF" stroke="#E7E5E4" stroke-width="2"/>
  <rect x="874" y="294" width="254" height="146" rx="24" fill="#FFFFFF" stroke="#E7E5E4" stroke-width="2"/>
  <rect x="362" y="320" width="112" height="12" rx="6" fill="#78716C"/>
  <rect x="362" y="346" width="98" height="38" rx="19" fill="#0F172A"/>
  <rect x="630" y="320" width="124" height="12" rx="6" fill="#78716C"/>
  <rect x="630" y="346" width="148" height="38" rx="19" fill="#14532D"/>
  <rect x="898" y="320" width="100" height="12" rx="6" fill="#78716C"/>
  <rect x="898" y="346" width="118" height="38" rx="19" fill="#7C3AED"/>
  <rect x="338" y="470" width="510" height="328" rx="24" fill="#FFFFFF" stroke="#E7E5E4" stroke-width="2"/>
  <rect x="872" y="470" width="256" height="328" rx="24" fill="#FFFFFF" stroke="#E7E5E4" stroke-width="2"/>
  <rect x="366" y="500" width="190" height="14" rx="7" fill="#111827"/>
  <rect x="366" y="536" width="454" height="84" rx="22" fill="#F8FAFC"/>
  <rect x="366" y="636" width="454" height="84" rx="22" fill="#F8FAFC"/>
  <rect x="898" y="500" width="84" height="84" rx="22" fill="#DBEAFE"/>
  <rect x="996" y="502" width="92" height="14" rx="7" fill="#111827"/>
  <rect x="996" y="528" width="68" height="10" rx="5" fill="#78716C"/>
  <rect x="898" y="612" width="84" height="84" rx="22" fill="#DCFCE7"/>
  <rect x="996" y="614" width="96" height="14" rx="7" fill="#111827"/>
  <rect x="996" y="640" width="72" height="10" rx="5" fill="#78716C"/>
  <defs>
    <linearGradient id="paint0_linear" x1="338" y1="72" x2="1128" y2="262" gradientUnits="userSpaceOnUse">
      <stop stop-color="#0F172A"/>
      <stop offset="0.5" stop-color="#334155"/>
      <stop offset="1" stop-color="#B45309"/>
    </linearGradient>
  </defs>
</svg>
